<svg xmlns="http://www.w3.org/2000/svg" version="1.1" xmlns:xlink="http://www.w3.org/1999/xlink" xmlns:svgjs="http://svgjs.dev/svgjs" width="2000" height="161" viewBox="0 0 2000 161"><g transform="matrix(1,0,0,1,-1.2121212121212466,0.3687853861704298)"><svg viewBox="0 0 396 32" data-background-color="#ffffff" preserveAspectRatio="xMidYMid meet" height="161" width="2000" xmlns="http://www.w3.org/2000/svg" xmlns:xlink="http://www.w3.org/1999/xlink"><g id="tight-bounds" transform="matrix(1,0,0,1,0.2400000000000091,-0.06286834284489373)"><svg viewBox="0 0 395.52 32.1257366856898" height="32.1257366856898" width="395.52"><g><svg viewBox="0 0 440.71942517697164 35.797017105339705" height="32.1257366856898" width="395.52"><g transform="matrix(1,0,0,1,45.19942517697166,4.9473446216497)"><svg viewBox="0 0 395.52 25.902327862040305" height="25.902327862040305" width="395.52"><g id="textblocktransform"><svg viewBox="0 0 395.52 25.902327862040305" height="25.902327862040305" width="395.52" id="textblock"><g><svg viewBox="0 0 395.52 25.902327862040305" height="25.902327862040305" width="395.52"><g transform="matrix(1,0,0,1,0,0)"><svg width="395.52" viewBox="4.91 -37.99 582.12 38.480000000000004" height="25.902327862040305" data-palette-color="#9333ea"><g class="wordmark-text-0" data-fill-palette-color="primary" id="text-0"><path d="M4.91 0L4.91-35.69 14.99-35.69Q22.09-35.69 25.27-33.57 28.44-31.45 28.44-26.86L28.44-26.86Q28.44-23.68 26.67-21.62 24.9-19.56 21.51-18.95L21.51-18.95 21.51-18.7Q29.64-17.31 29.64-10.16L29.64-10.16Q29.64-5.37 26.4-2.69 23.17 0 17.36 0L17.36 0 4.91 0ZM9.06-32.1L9.06-20.41 15.89-20.41Q20.29-20.41 22.22-21.79 24.15-23.17 24.15-26.44L24.15-26.44Q24.15-29.44 22-30.77 19.85-32.1 15.16-32.1L15.16-32.1 9.06-32.1ZM16.16-16.89L9.06-16.89 9.06-3.54 16.5-3.54Q20.83-3.54 23.01-5.21 25.2-6.88 25.2-10.45L25.2-10.45Q25.2-13.77 22.96-15.33 20.73-16.89 16.16-16.89L16.16-16.89ZM40.74-26.76L40.74 0 36.69 0 36.69-26.76 40.74-26.76ZM36.35-34.01L36.35-34.01Q36.35-35.4 37.03-36.05 37.72-36.69 38.74-36.69L38.74-36.69Q39.72-36.69 40.43-36.04 41.14-35.38 41.14-34.01L41.14-34.01Q41.14-32.64 40.43-31.97 39.72-31.3 38.74-31.3L38.74-31.3Q37.72-31.3 37.03-31.97 36.35-32.64 36.35-34.01ZM66.6-7.3L66.6-7.3Q66.6-3.56 63.81-1.54 61.03 0.49 56 0.49L56 0.49Q50.68 0.49 47.7-1.2L47.7-1.2 47.7-4.96Q49.63-3.98 51.84-3.42 54.05-2.86 56.1-2.86L56.1-2.86Q59.27-2.86 60.98-3.87 62.69-4.88 62.69-6.96L62.69-6.96Q62.69-8.52 61.34-9.63 59.98-10.74 56.05-12.26L56.05-12.26Q52.31-13.65 50.74-14.69 49.16-15.72 48.4-17.04 47.63-18.36 47.63-20.19L47.63-20.19Q47.63-23.46 50.29-25.35 52.95-27.25 57.59-27.25L57.59-27.25Q61.91-27.25 66.04-25.49L66.04-25.49 64.59-22.19Q60.57-23.85 57.29-23.85L57.29-23.85Q54.41-23.85 52.95-22.95 51.48-22.05 51.48-20.46L51.48-20.46Q51.48-19.38 52.03-18.63 52.58-17.87 53.8-17.19 55.02-16.5 58.49-15.21L58.49-15.21Q63.25-13.48 64.92-11.72 66.6-9.96 66.6-7.3ZM90.45-7.3L90.45-7.3Q90.45-3.56 87.66-1.54 84.88 0.49 79.85 0.49L79.85 0.49Q74.53 0.49 71.55-1.2L71.55-1.2 71.55-4.96Q73.48-3.98 75.69-3.42 77.9-2.86 79.95-2.86L79.95-2.86Q83.12-2.86 84.83-3.87 86.54-4.88 86.54-6.96L86.54-6.96Q86.54-8.52 85.19-9.63 83.83-10.74 79.9-12.26L79.9-12.26Q76.16-13.65 74.59-14.69 73.01-15.72 72.25-17.04 71.48-18.36 71.48-20.19L71.48-20.19Q71.48-23.46 74.14-25.35 76.8-27.25 81.44-27.25L81.44-27.25Q85.76-27.25 89.89-25.49L89.89-25.49 88.44-22.19Q84.42-23.85 81.14-23.85L81.14-23.85Q78.26-23.85 76.8-22.95 75.33-22.05 75.33-20.46L75.33-20.46Q75.33-19.38 75.88-18.63 76.43-17.87 77.65-17.19 78.87-16.5 82.34-15.21L82.34-15.21Q87.1-13.48 88.77-11.72 90.45-9.96 90.45-7.3ZM120.13-13.4L120.13-13.4Q120.13-6.86 116.84-3.19 113.54 0.49 107.73 0.49L107.73 0.49Q104.14 0.49 101.36-1.2 98.57-2.88 97.06-6.03 95.55-9.18 95.55-13.4L95.55-13.4Q95.55-19.95 98.82-23.6 102.09-27.25 107.9-27.25L107.9-27.25Q113.52-27.25 116.82-23.51 120.13-19.78 120.13-13.4ZM99.75-13.4L99.75-13.4Q99.75-8.28 101.8-5.59 103.85-2.91 107.83-2.91L107.83-2.91Q111.81-2.91 113.87-5.58 115.93-8.25 115.93-13.4L115.93-13.4Q115.93-18.51 113.87-21.15 111.81-23.8 107.78-23.8L107.78-23.8Q103.8-23.8 101.77-21.19 99.75-18.58 99.75-13.4ZM149.6 0L145.54 0 145.54-17.31Q145.54-20.58 144.05-22.19 142.57-23.8 139.39-23.8L139.39-23.8Q135.19-23.8 133.24-21.53 131.29-19.26 131.29-14.04L131.29-14.04 131.29 0 127.23 0 127.23-26.76 130.53-26.76 131.19-23.1 131.38-23.1Q132.63-25.07 134.88-26.16 137.12-27.25 139.88-27.25L139.88-27.25Q144.71-27.25 147.16-24.91 149.6-22.58 149.6-17.46L149.6-17.46 149.6 0ZM180.28 0L176.23 0 176.23-17.31Q176.23-20.58 174.74-22.19 173.25-23.8 170.08-23.8L170.08-23.8Q165.88-23.8 163.93-21.53 161.97-19.26 161.97-14.04L161.97-14.04 161.97 0 157.92 0 157.92-26.76 161.22-26.76 161.87-23.1 162.07-23.1Q163.32-25.07 165.56-26.16 167.81-27.25 170.57-27.25L170.57-27.25Q175.4-27.25 177.84-24.91 180.28-22.58 180.28-17.46L180.28-17.46 180.28 0ZM199.91 0.49L199.91 0.49Q193.98 0.49 190.55-3.13 187.12-6.74 187.12-13.16L187.12-13.16Q187.12-19.63 190.3-23.44 193.49-27.25 198.86-27.25L198.86-27.25Q203.89-27.25 206.82-23.94 209.75-20.63 209.75-15.21L209.75-15.21 209.75-12.65 191.32-12.65Q191.44-7.93 193.7-5.49 195.95-3.05 200.06-3.05L200.06-3.05Q204.38-3.05 208.6-4.86L208.6-4.86 208.6-1.25Q206.45-0.32 204.54 0.09 202.62 0.49 199.91 0.49ZM198.81-23.85L198.81-23.85Q195.59-23.85 193.67-21.75 191.75-19.65 191.41-15.94L191.41-15.94 205.4-15.94Q205.4-19.78 203.69-21.81 201.98-23.85 198.81-23.85ZM225.3-2.86L225.3-2.86Q226.37-2.86 227.37-3.02 228.37-3.17 228.96-3.34L228.96-3.34 228.96-0.24Q228.3 0.07 227.02 0.28 225.74 0.49 224.71 0.49L224.71 0.49Q216.95 0.49 216.95-7.69L216.95-7.69 216.95-23.61 213.11-23.61 213.11-25.56 216.95-27.25 218.66-32.96 221-32.96 221-26.76 228.76-26.76 228.76-23.61 221-23.61 221-7.86Q221-5.44 222.15-4.15 223.3-2.86 225.3-2.86Z" fill="#ffffff" data-fill-palette-color="primary"></path><path d="M265.99 0L262.65 0 250.54-31.64 250.34-31.64Q250.69-27.88 250.69-22.71L250.69-22.71 250.69 0 246.85 0 246.85-35.69 253.1-35.69 264.41-6.25 264.6-6.25 276-35.69 282.2-35.69 282.2 0 278.05 0 278.05-23Q278.05-26.95 278.4-31.59L278.4-31.59 278.2-31.59 265.99 0ZM302.69 0.49L302.69 0.49Q296.75 0.49 293.32-3.13 289.89-6.74 289.89-13.16L289.89-13.16Q289.89-19.63 293.08-23.44 296.26-27.25 301.64-27.25L301.64-27.25Q306.66-27.25 309.59-23.94 312.52-20.63 312.52-15.21L312.52-15.21 312.52-12.65 294.09-12.65Q294.21-7.93 296.47-5.49 298.73-3.05 302.83-3.05L302.83-3.05Q307.15-3.05 311.38-4.86L311.38-4.86 311.38-1.25Q309.23-0.32 307.31 0.09 305.4 0.49 302.69 0.49ZM301.59-23.85L301.59-23.85Q298.36-23.85 296.45-21.75 294.53-19.65 294.19-15.94L294.19-15.94 308.18-15.94Q308.18-19.78 306.47-21.81 304.76-23.85 301.59-23.85ZM338.18 0L337.64-3.59 337.42-3.59Q334.62 0.49 329.03 0.49L329.03 0.49Q323.78 0.49 320.86-3.1 317.94-6.69 317.94-13.31L317.94-13.31Q317.94-19.92 320.87-23.58 323.8-27.25 329.03-27.25L329.03-27.25Q334.47-27.25 337.38-23.29L337.38-23.29 337.69-23.29 337.52-25.22 337.42-27.1 337.42-37.99 341.48-37.99 341.48 0 338.18 0ZM329.54-2.91L329.54-2.91Q333.69-2.91 335.56-5.16 337.42-7.42 337.42-12.45L337.42-12.45 337.42-13.31Q337.42-18.99 335.53-21.42 333.64-23.85 329.49-23.85L329.49-23.85Q325.93-23.85 324.03-21.08 322.14-18.31 322.14-13.26L322.14-13.26Q322.14-8.13 324.02-5.52 325.9-2.91 329.54-2.91ZM354.12-26.76L354.12 0 350.07 0 350.07-26.76 354.12-26.76ZM349.73-34.01L349.73-34.01Q349.73-35.4 350.41-36.05 351.09-36.69 352.12-36.69L352.12-36.69Q353.1-36.69 353.8-36.04 354.51-35.38 354.51-34.01L354.51-34.01Q354.51-32.64 353.8-31.97 353.1-31.3 352.12-31.3L352.12-31.3Q351.09-31.3 350.41-31.97 349.73-32.64 349.73-34.01ZM373.41 0.49L373.41 0.49Q367.59 0.49 364.41-3.09 361.22-6.67 361.22-13.21L361.22-13.21Q361.22-19.92 364.46-23.58 367.69-27.25 373.67-27.25L373.67-27.25Q375.6-27.25 377.53-26.83 379.46-26.42 380.56-25.85L380.56-25.85 379.31-22.41Q377.97-22.95 376.38-23.3 374.8-23.66 373.58-23.66L373.58-23.66Q365.42-23.66 365.42-13.26L365.42-13.26Q365.42-8.33 367.41-5.69 369.4-3.05 373.31-3.05L373.31-3.05Q376.65-3.05 380.17-4.49L380.17-4.49 380.17-0.9Q377.48 0.49 373.41 0.49ZM405.97 0L402.97 0 402.16-3.81 401.97-3.81Q399.97-1.29 397.98-0.4 395.99 0.49 393.01 0.49L393.01 0.49Q389.03 0.49 386.77-1.56 384.51-3.61 384.51-7.4L384.51-7.4Q384.51-15.5 397.48-15.89L397.48-15.89 402.02-16.04 402.02-17.7Q402.02-20.85 400.66-22.35 399.31-23.85 396.33-23.85L396.33-23.85Q392.98-23.85 388.76-21.8L388.76-21.8 387.51-24.9Q389.49-25.98 391.85-26.59 394.2-27.2 396.57-27.2L396.57-27.2Q401.36-27.2 403.66-25.07 405.97-22.95 405.97-18.26L405.97-18.26 405.97 0ZM393.81-2.86L393.81-2.86Q397.6-2.86 399.76-4.93 401.92-7.01 401.92-10.74L401.92-10.74 401.92-13.16 397.87-12.99Q393.03-12.82 390.9-11.49 388.76-10.16 388.76-7.35L388.76-7.35Q388.76-5.15 390.09-4 391.42-2.86 393.81-2.86ZM418.37-37.99L418.37 0 414.32 0 414.32-37.99 418.37-37.99Z" fill="#ffffff" data-fill-palette-color="secondary"></path><path d="M451.55-32.5L451.55-32.5Q445.66-32.5 442.26-28.58 438.85-24.66 438.85-17.85L438.85-17.85Q438.85-10.84 442.13-7.02 445.42-3.2 451.5-3.2L451.5-3.2Q455.23-3.2 460.02-4.54L460.02-4.54 460.02-0.9Q456.31 0.49 450.86 0.49L450.86 0.49Q442.98 0.49 438.69-4.3 434.41-9.08 434.41-17.9L434.41-17.9Q434.41-23.41 436.47-27.56 438.53-31.71 442.43-33.96 446.32-36.21 451.6-36.21L451.6-36.21Q457.21-36.21 461.41-34.16L461.41-34.16 459.65-30.59Q455.6-32.5 451.55-32.5ZM478.5 0.49L478.5 0.49Q472.56 0.49 469.13-3.13 465.7-6.74 465.7-13.16L465.7-13.16Q465.7-19.63 468.89-23.44 472.08-27.25 477.45-27.25L477.45-27.25Q482.48-27.25 485.41-23.94 488.34-20.63 488.34-15.21L488.34-15.21 488.34-12.65 469.9-12.65Q470.03-7.93 472.28-5.49 474.54-3.05 478.64-3.05L478.64-3.05Q482.96-3.05 487.19-4.86L487.19-4.86 487.19-1.25Q485.04-0.32 483.12 0.09 481.21 0.49 478.5 0.49ZM477.4-23.85L477.4-23.85Q474.18-23.85 472.26-21.75 470.34-19.65 470-15.94L470-15.94 483.99-15.94Q483.99-19.78 482.28-21.81 480.57-23.85 477.4-23.85ZM517.61 0L513.55 0 513.55-17.31Q513.55-20.58 512.06-22.19 510.57-23.8 507.4-23.8L507.4-23.8Q503.2-23.8 501.25-21.53 499.3-19.26 499.3-14.04L499.3-14.04 499.3 0 495.24 0 495.24-26.76 498.54-26.76 499.2-23.1 499.39-23.1Q500.64-25.07 502.88-26.16 505.13-27.25 507.89-27.25L507.89-27.25Q512.72-27.25 515.16-24.91 517.61-22.58 517.61-17.46L517.61-17.46 517.61 0ZM534.57-2.86L534.57-2.86Q535.65-2.86 536.65-3.02 537.65-3.17 538.23-3.34L538.23-3.34 538.23-0.24Q537.57 0.07 536.29 0.28 535.01 0.49 533.99 0.49L533.99 0.49Q526.22 0.49 526.22-7.69L526.22-7.69 526.22-23.61 522.39-23.61 522.39-25.56 526.22-27.25 527.93-32.96 530.27-32.96 530.27-26.76 538.04-26.76 538.04-23.61 530.27-23.61 530.27-7.86Q530.27-5.44 531.42-4.15 532.57-2.86 534.57-2.86ZM554.88 0.49L554.88 0.49Q548.95 0.49 545.52-3.13 542.09-6.74 542.09-13.16L542.09-13.16Q542.09-19.63 545.27-23.44 548.46-27.25 553.83-27.25L553.83-27.25Q558.86-27.25 561.79-23.94 564.72-20.63 564.72-15.21L564.72-15.21 564.72-12.65 546.29-12.65Q546.41-7.93 548.67-5.49 550.93-3.05 555.03-3.05L555.03-3.05Q559.35-3.05 563.57-4.86L563.57-4.86 563.57-1.25Q561.42-0.32 559.51 0.09 557.59 0.49 554.88 0.49ZM553.78-23.85L553.78-23.85Q550.56-23.85 548.64-21.75 546.73-19.65 546.38-15.94L546.38-15.94 560.37-15.94Q560.37-19.78 558.67-21.81 556.96-23.85 553.78-23.85ZM583.83-27.25L583.83-27.25Q585.62-27.25 587.03-26.95L587.03-26.95 586.47-23.19Q584.81-23.56 583.54-23.56L583.54-23.56Q580.29-23.56 577.99-20.92 575.68-18.29 575.68-14.36L575.68-14.36 575.68 0 571.63 0 571.63-26.76 574.97-26.76 575.44-21.8 575.63-21.8Q577.12-24.41 579.22-25.83 581.32-27.25 583.83-27.25Z" fill="#ffffff" data-fill-palette-color="primary"></path></g></svg></g></svg></g></svg></g></svg></g><g><svg viewBox="0 0 39.08450722461263 35.797017105339705" height="35.797017105339705" width="39.08450722461263"><g><svg xmlns="http://www.w3.org/2000/svg" xmlns:xlink="http://www.w3.org/1999/xlink" version="1.1" x="0" y="0" viewBox="-924.7438844816563 512.8 60.48776896331265 55.39999999999998" style="enable-background:new -927 509 64 64;" xml:space="preserve" height="35.797017105339705" width="39.08450722461263" class="icon-icon-0" data-fill-palette-color="accent" id="icon-0"><path class="" d="M-892.9 544.6L-892.9 544.6-892.9 544.6C-892.8 544.6-892.9 544.6-892.9 544.6z" fill="none"></path><path class="" d="M-896.1 565.6v-0.5C-896.1 565.3-896.1 565.4-896.1 565.6z" fill="none"></path><path d="M-893.7 560.3l0.2-2.5-1.8-0.7 0.4 3.7L-893.7 560.3z" fill="#ffffff" data-fill-palette-color="accent"></path><path d="M-891.8 524.1h-5.1l0.9 19.4h3.3L-891.8 524.1z" fill="#ffffff" data-fill-palette-color="accent"></path><path d="M-894.9 564.3l0.4 3.9h0.3l0.4-4.1L-894.9 564.3z" fill="#ffffff" data-fill-palette-color="accent"></path><path d="M-892.9 551.4l0.1-1.8-3.1 0 0.1 1.8 1.4 0.6L-892.9 551.4z" fill="#ffffff" data-fill-palette-color="accent"></path><circle cx="-894.3" cy="517.5" r="4.7" fill="#ffffff" data-fill-palette-color="accent"></circle><path d="M-886 519.1h20c1.5 0 2.3 1.8 1.3 2.9-1.7 1.9-3.5 3.8-8.1 6.1-6.4 3.4-10.6 3.4-14.1 3.6-1.2 0.1-2.2-0.8-2-1.9l1.3-9.2C-887.6 519.7-886.9 519.1-886 519.1z" fill="#ffffff" data-fill-palette-color="accent"></path><path d="M-903 519.1h-20c-1.5 0-2.3 1.8-1.3 2.9 1.7 1.9 3.5 3.8 8.1 6.1 6.4 3.4 10.7 3.6 14.1 3.6 1.2 0 2.2-0.8 2-1.9l-1.3-9.2C-901.4 519.7-902.1 519.1-903 519.1z" fill="#ffffff" data-fill-palette-color="accent"></path><path d="M-877.7 542l0-0.3-0.1-0.4c0-0.3-0.1-0.5-0.2-0.8-0.1-0.5-0.3-1-0.6-1.4-0.5-0.9-1.2-1.6-2-2-0.8-0.5-1.6-0.7-2.3-0.8-0.2 0-1.2-0.1-1.2-0.1-0.8-0.6-1.3-0.9-2-0.9-0.8 0-4 2.3-4 3 0 0.8 3.2 3 3.9 3 0.8 0 1.3-0.5 2.1-1.1 0 0 0.7 0 0.7 0 0.2 0 0.5 0.1 0.7 0.3 0.5 0.3 0.8 0.8 0.9 1.7 0 0.5 0 1-0.2 1.3-0.2 0.4-0.3 0.6-0.7 0.8-0.2 0.1-0.4 0.2-0.6 0.2-0.3 0.1-0.4 0.1-0.9 0.1-0.9 0-1.7 0-2.6 0-3.6 0.1-7.5 0.1-11.4 0.2l-0.7 0-0.2 0-0.1 0-0.1 0-0.5 0c-0.7 0.1-1.4 0.3-2 0.7-1.3 0.7-2.3 2.1-2.4 3.7-0.1 0.8 0.1 1.6 0.5 2.3 0.1 0.3 0.4 0.7 0.7 1l0.2 0.2 0.1 0.1 0 0c0 0 0.2 0.2 0.1 0.1l0.1 0 0.2 0.2c0.6 0.4 1.1 0.6 1.6 0.8 0.5 0.2 0.9 0.4 1.4 0.5 1.8 0.6 3.5 1.1 5 1.6 0.8 0.3 1.5 0.5 2.1 0.8 0.6 0.3 1.2 0.6 1.5 0.9l0.1 0.1c0 0 0 0 0 0l0.1 0.2 0 0 0 0.1c0.1 0.2 0.1 0.4 0.1 0.5 0 0.3-0.1 0.6-0.3 0.9-0.3 0.3-0.6 0.6-1 0.9-0.4 0.3-2.5 2.2-2.5 2.2s2.8-0.4 3.3-0.5c0.5-0.2 1.1-0.4 1.8-0.9 0.6-0.4 1.3-1.3 1.4-2.4 0.1-0.5 0-1-0.1-1.5l0-0.2 0-0.1 0 0 0 0c0-0.1 0 0.1 0-0.1l-0.1-0.2c-0.1-0.1-0.2-0.3-0.3-0.4-0.1-0.1-0.2-0.2-0.3-0.3-0.7-0.8-1.5-1.2-2.2-1.6-0.8-0.4-1.5-0.7-2.3-1.1-1.6-0.6-3.3-1.2-4.9-1.9-0.4-0.2-0.8-0.3-1.2-0.5-0.4-0.2-0.7-0.4-0.9-0.5l0 0-0.2-0.3c0-0.1 0 0-0.1-0.2-0.1-0.2-0.1-0.3-0.1-0.5 0.1-0.3 0.3-0.7 0.7-0.8 0.2-0.1 0.5-0.2 0.7-0.2l0.2 0 1 0c3.9 0 7.8 0.1 11.4 0.1 0.9 0 1.8 0 2.7 0 0.3 0 1.1-0.1 1.7-0.2 0.6-0.1 1.2-0.3 1.7-0.6 1.1-0.6 2-1.7 2.5-2.8C-877.8 544-877.7 543-877.7 542z" fill="#ffffff" data-fill-palette-color="accent"></path><path d="M-903 535.3c-0.7 0-1.6 0.3-1.9 1l-0.7 0c-2.8 0-5.7 2.1-5.7 6.1 0 3.5 2.2 6.1 5.6 6.4 0 0 0.2-1.1 1-2.2 0.8-1.1 1.8-1.7 1.8-1.7s-1.6-0.1-1.9-0.1c-2.3 0-2.6-1.5-2.6-2.4 0-1.7 1.5-2.2 1.9-2.2 0.4 0 0.6 0 0.6 0 0.4 0.8 1.3 1.2 2.1 1.2 0.7 0 3.9-2.2 3.9-3C-899.1 537.6-902.2 535.3-903 535.3z" fill="#ffffff" data-fill-palette-color="accent"></path><g fill="#35185a" data-fill-palette-color="accent"><path class="" d="M-891.1 553.4" fill="none"></path></g><g fill="#35185a" data-fill-palette-color="accent"><path class="" d="M-894.1 563.2" fill="none"></path></g><path d="M-896.2 556.8c-0.9 0.4-1.7 0.8-2.1 1.2-0.2 0.2-0.2 0.2-0.2 0.4-0.1 0.2-0.1 0.4-0.1 0.5 0 0.3 0.1 0.5 0.3 0.9 0.3 0.3 0.6 0.6 1 0.9 0.4 0.3 1.2 0.8 1.2 0.8l1.9 1.4-2.4-0.2c0 0-0.9-0.2-1.4-0.4-0.5-0.2-1.1-0.4-1.8-0.9-0.6-0.4-1.3-1.3-1.4-2.4-0.1-0.5 0-1 0.1-1.5 0.1-0.5 0.4-1.1 0.8-1.5 0.2-0.2 0.4-0.4 0.5-0.5" fill="#ffffff" data-fill-palette-color="accent"></path><path d="M-892.8 552.7c3.8-1.5 3.8-3 3.8-3l4.1 0.1 0 0.3 0 0.1 0 0.2 0 0 0 0.1 0 0 0 0.1c0 0.1-0.1 0.2-0.1 0.3-0.1 0.2-0.1 0.4-0.2 0.5-0.2 0.3-0.4 0.7-0.6 0.9-0.1 0.1-0.2 0.3-0.4 0.4l-0.2 0.2c-0.1 0.1-0.2 0.1-0.2 0.2-0.6 0.4-1.1 0.6-1.6 0.8-0.2 0.1-0.7 0.3-0.7 0.3L-892.8 552.7z" fill="#ffffff" data-fill-palette-color="accent"></path></svg></g></svg></g></svg></g><defs></defs></svg><rect width="395.52" height="32.1257366856898" fill="none" stroke="none" visibility="hidden"></rect></g></svg></g></svg>